<svg width="200" height="26" viewBox="0 0 200 26" fill="none" xmlns="http://www.w3.org/2000/svg">
<path d="M114 24.448V4.08437H121.636C123.201 4.08437 124.513 4.37604 125.574 4.95937C126.641 5.54271 127.446 6.34479 127.99 7.36562C128.54 8.37983 128.815 9.53324 128.815 10.8259C128.815 12.1317 128.54 13.2918 127.99 14.306C127.44 15.3202 126.628 16.1189 125.554 16.7023C124.48 17.279 123.158 17.5673 121.587 17.5673H116.526V14.5347H121.089C122.004 14.5347 122.753 14.3756 123.337 14.0574C123.92 13.7392 124.351 13.3017 124.629 12.7449C124.914 12.1881 125.057 11.5484 125.057 10.8259C125.057 10.1033 124.914 9.46695 124.629 8.91676C124.351 8.36657 123.917 7.93902 123.327 7.63409C122.743 7.32254 121.991 7.16676 121.07 7.16676H117.689V24.448H114Z" fill="#363636"/>
<path d="M136.744 24.7463C135.252 24.7463 133.96 24.4182 132.866 23.7619C131.772 23.1057 130.924 22.1876 130.32 21.0077C129.724 19.8277 129.425 18.449 129.425 16.8713C129.425 15.2937 129.724 13.9116 130.32 12.725C130.924 11.5384 131.772 10.617 132.866 9.9608C133.96 9.30455 135.252 8.97642 136.744 8.97642C138.235 8.97642 139.528 9.30455 140.621 9.9608C141.715 10.617 142.56 11.5384 143.157 12.725C143.76 13.9116 144.062 15.2937 144.062 16.8713C144.062 18.449 143.76 19.8277 143.157 21.0077C142.56 22.1876 141.715 23.1057 140.621 23.7619C139.528 24.4182 138.235 24.7463 136.744 24.7463ZM136.764 21.8628C137.572 21.8628 138.248 21.6407 138.792 21.1966C139.335 20.7458 139.74 20.1426 140.005 19.3869C140.277 18.6313 140.413 17.7894 140.413 16.8614C140.413 15.9267 140.277 15.0815 140.005 14.3259C139.74 13.5635 139.335 12.957 138.792 12.5062C138.248 12.0555 137.572 11.8301 136.764 11.8301C135.935 11.8301 135.246 12.0555 134.695 12.5062C134.152 12.957 133.744 13.5635 133.472 14.3259C133.207 15.0815 133.075 15.9267 133.075 16.8614C133.075 17.7894 133.207 18.6313 133.472 19.3869C133.744 20.1426 134.152 20.7458 134.695 21.1966C135.246 21.6407 135.935 21.8628 136.764 21.8628Z" fill="#363636"/>
<path d="M150.156 4.08437V24.448H146.557V4.08437H150.156Z" fill="#363636"/>
<path d="M157.693 24.7562C156.725 24.7562 155.853 24.5839 155.077 24.2392C154.309 23.8879 153.699 23.3708 153.248 22.6881C152.804 22.0053 152.582 21.1634 152.582 20.1625C152.582 19.3008 152.741 18.5882 153.059 18.0247C153.377 17.4613 153.811 17.0105 154.362 16.6724C154.912 16.3344 155.532 16.0792 156.221 15.9068C156.917 15.7278 157.636 15.5986 158.379 15.519C159.273 15.4262 159.999 15.3434 160.556 15.2705C161.113 15.1909 161.517 15.0716 161.769 14.9125C162.028 14.7468 162.157 14.4916 162.157 14.1469V14.0872C162.157 13.3382 161.935 12.7581 161.491 12.3472C161.047 11.9362 160.407 11.7307 159.572 11.7307C158.69 11.7307 157.991 11.9229 157.474 12.3074C156.963 12.6919 156.619 13.1459 156.44 13.6696L153.079 13.1923C153.344 12.2643 153.782 11.4887 154.391 10.8656C155.001 10.2359 155.747 9.76525 156.629 9.45369C157.51 9.13551 158.485 8.97642 159.552 8.97642C160.288 8.97642 161.02 9.0626 161.749 9.23494C162.478 9.40729 163.145 9.69233 163.748 10.0901C164.351 10.4812 164.835 11.0148 165.2 11.6909C165.571 12.367 165.756 13.2122 165.756 14.2264V24.448H162.296V22.35H162.177C161.958 22.7742 161.65 23.172 161.252 23.5432C160.861 23.9078 160.367 24.2027 159.771 24.4281C159.181 24.6469 158.488 24.7562 157.693 24.7562ZM158.627 22.1114C159.35 22.1114 159.976 21.9688 160.506 21.6838C161.037 21.3921 161.444 21.0077 161.729 20.5304C162.021 20.0531 162.167 19.5328 162.167 18.9693V17.1696C162.054 17.2624 161.862 17.3486 161.59 17.4281C161.325 17.5077 161.027 17.5773 160.695 17.6369C160.364 17.6966 160.036 17.7496 159.711 17.796C159.386 17.8424 159.104 17.8822 158.866 17.9153C158.329 17.9883 157.848 18.1076 157.424 18.2733C157 18.439 156.665 18.671 156.42 18.9693C156.175 19.261 156.052 19.6388 156.052 20.1028C156.052 20.7657 156.294 21.2662 156.778 21.6043C157.262 21.9423 157.878 22.1114 158.627 22.1114Z" fill="#363636"/>
<path d="M168.816 24.448V9.17528H172.306V11.7207H172.465C172.743 10.8391 173.221 10.1597 173.897 9.68239C174.579 9.19849 175.358 8.95653 176.233 8.95653C176.432 8.95653 176.654 8.96648 176.9 8.98636C177.151 8.99962 177.36 9.02282 177.526 9.05597V12.367C177.374 12.314 177.132 12.2676 176.8 12.2278C176.475 12.1814 176.16 12.1582 175.856 12.1582C175.199 12.1582 174.609 12.3008 174.086 12.5858C173.569 12.8642 173.161 13.252 172.863 13.7491C172.564 14.2463 172.415 14.8197 172.415 15.4693V24.448H168.816Z" fill="#363636"/>
<path d="M179.357 24.448V9.17528H182.957V24.448H179.357ZM181.167 7.00767C180.597 7.00767 180.106 6.81875 179.695 6.44091C179.284 6.05644 179.079 5.59574 179.079 5.05881C179.079 4.51525 179.284 4.05455 179.695 3.6767C180.106 3.29223 180.597 3.1 181.167 3.1C181.744 3.1 182.234 3.29223 182.639 3.6767C183.05 4.05455 183.255 4.51525 183.255 5.05881C183.255 5.59574 183.05 6.05644 182.639 6.44091C182.234 6.81875 181.744 7.00767 181.167 7.00767Z" fill="#363636"/>
<path d="M198.169 13.2122L194.888 13.5702C194.795 13.2387 194.633 12.9272 194.401 12.6355C194.175 12.3438 193.87 12.1085 193.486 11.9295C193.101 11.7506 192.631 11.6611 192.074 11.6611C191.325 11.6611 190.695 11.8235 190.185 12.1483C189.681 12.4731 189.432 12.894 189.439 13.4111C189.432 13.8552 189.595 14.2165 189.926 14.4949C190.264 14.7733 190.821 15.002 191.597 15.181L194.202 15.7378C195.647 16.0493 196.721 16.5432 197.423 17.2193C198.133 17.8955 198.491 18.7804 198.497 19.8741C198.491 20.8353 198.209 21.6838 197.652 22.4196C197.102 23.1488 196.336 23.7188 195.355 24.1298C194.374 24.5408 193.247 24.7463 191.975 24.7463C190.105 24.7463 188.6 24.3552 187.46 23.573C186.32 22.7842 185.641 21.6871 185.422 20.2818L188.932 19.9437C189.091 20.6331 189.429 21.1535 189.946 21.5048C190.463 21.8562 191.136 22.0318 191.965 22.0318C192.82 22.0318 193.506 21.8562 194.023 21.5048C194.546 21.1535 194.808 20.7193 194.808 20.2023C194.808 19.7648 194.639 19.4035 194.301 19.1185C193.97 18.8334 193.453 18.6147 192.75 18.4622L190.145 17.9153C188.68 17.6104 187.596 17.0967 186.894 16.3741C186.191 15.645 185.843 14.7236 185.85 13.6099C185.843 12.6687 186.098 11.8533 186.615 11.1639C187.139 10.4679 187.865 9.93097 188.793 9.55312C189.727 9.16866 190.805 8.97642 192.024 8.97642C193.814 8.97642 195.223 9.35758 196.25 10.1199C197.284 10.8822 197.924 11.913 198.169 13.2122Z" fill="#363636"/>
<path d="M104.091 20.5767V9.78693H105.548V20.5767H104.091ZM99.4205 15.9062V14.4574H110.219V15.9062H99.4205Z" fill="#363636"/>
<g clip-path="url(#clip0_1_2)">
<path d="M96.2058 7.85142H89.9873L87.1574 11.7985L84.4019 7.85142H77.7366L83.7316 16.0063L77.2153 24.4589H83.4337L86.7478 19.9533L90.0618 24.4589H96.7271L90.1735 15.7456L96.2058 7.85142Z" fill="#363636"/>
<path d="M70.5907 7.85149V24.4589H76.623V7.85149H70.5907ZM70.5535 6.28756H76.6602V1H70.5535V6.28756Z" fill="#363636"/>
<path d="M57.0372 10.6814C56.3297 8.74512 54.8031 7.40461 51.8614 7.40461C49.3665 7.40461 47.5792 8.5217 46.6855 10.3463V7.85145H40.6532V24.4589H46.6855V16.3041C46.6855 13.8093 47.393 12.1709 49.3665 12.1709C51.1911 12.1709 51.638 13.3624 51.638 15.6339V24.4589H57.6703V16.3041C57.6703 13.8093 58.3405 12.1709 60.3513 12.1709C62.1759 12.1709 62.5854 13.3624 62.5854 15.6339V24.4589H68.6177V14.0327C68.6177 10.5697 67.2772 7.40461 62.6972 7.40461C59.9044 7.40461 57.9309 8.81959 57.0372 10.6814Z" fill="#363636"/>
<path d="M34.3716 18.5383C33.8131 19.8416 32.7705 20.4001 31.1321 20.4001C29.3075 20.4001 27.818 19.432 27.6691 17.384H39.3241V15.7084C39.3241 11.2027 36.3824 7.40461 30.8342 7.40461C25.6583 7.40461 21.7857 11.1655 21.7857 16.4159C21.7857 21.7034 25.5839 24.9057 30.9087 24.9057C35.3025 24.9057 38.3559 22.7833 39.2124 18.9852L34.3716 18.5383ZM27.7436 14.4795C27.967 12.9156 28.8234 11.724 30.7597 11.724C32.5471 11.724 33.5152 12.9901 33.5897 14.4795H27.7436Z" fill="#363636"/>
<path d="M1 24.4182V20.7818H7.62423C8.7307 20.7818 8.97095 21.6019 8.97095 22.0909V24.4182H1Z" fill="#363636"/>
<path fill-rule="evenodd" clip-rule="evenodd" d="M20.4691 19.0596C20.68 21.7654 20.68 23.0337 20.68 24.4182H14.415C14.415 24.1167 14.4204 23.8407 14.4259 23.561C14.4428 22.6913 14.4605 21.7846 14.3195 19.9533C14.1332 17.2723 12.9778 16.6765 10.8534 16.6765H8.97121H1V11.7985H11.1515C13.835 11.7985 15.1767 10.9828 15.1767 8.82313C15.1767 6.92407 13.835 5.77324 11.1515 5.77324H1V1H12.2696C18.3447 1 21.3636 3.8672 21.3636 8.44727C21.3636 11.873 19.2393 14.1072 16.3695 14.4796C18.792 14.9636 20.2083 16.3414 20.4691 19.0596Z" fill="#363636"/>
</g>
<defs>
<clipPath id="clip0_1_2">
<rect width="95.8545" height="24" fill="white" transform="translate(1 1)"/>
</clipPath>
</defs>
</svg>
